<svg id="Layer_1" data-name="Layer 1" xmlns="http://www.w3.org/2000/svg" viewBox="0 0 250 250"><rect width="250" height="250" style="fill:none"/><path d="M36.43,173.36c.06-.05.15-.08.17-.14,1.77-4.77,3.51-6,8.53-5.87a4.74,4.74,0,0,1,4.29,2.56,21.09,21.09,0,0,1,1.6,4,8.79,8.79,0,0,0,3.18,4.51c2,1.47,3.92,3,5.87,4.52a3.07,3.07,0,0,1,1.25,1.43c-1.42,0-2.75,0-4.08,0-3.07-.08-6.17.37-9.19-.21A16.94,16.94,0,0,1,38,177.93c-.7-.87-.94-2-1.55-2.89Zm9.15,2.38c-.81-1.43-1.5-2.68-2.22-3.91a.94.94,0,0,0-1.11-.5,1.23,1.23,0,0,0-1.07.8,2.32,2.32,0,0,0,.9,2.74A5.67,5.67,0,0,0,45.58,175.74Z" style="fill:#db7f38"/><path d="M205.82,3.4c.61,1.76,2,3,2.87,4.63a18,18,0,0,1,2,6.68c.58,5.92-1.57,11.18-3.63,16.48-.23.6-.48,1.18-.72,1.78-.08.19-.17.37-.42.25a.38.38,0,0,1-.21-.5c.12-.29.28-.57.41-.86,1.75-3.82,3.16-7.72,2.86-12-.19-2.77.44-5.62-.3-8.33a21.3,21.3,0,0,0-3.2-7.11,1.32,1.32,0,0,1-.34-1Z" style="fill:#fceec6"/><path d="M104.5,72.75a5.71,5.71,0,0,0-1.65-1.52,3,3,0,0,0-3.72.16,29.43,29.43,0,0,1-15.78,5.92c-3.44.24-6.1-1.14-8.55-3.29-4.48-3.93-6-8.92-5.45-14.75.91-8.7,5.45-14.67,13.45-18.08,1.1-.47,2.2-.95,3.31-1.39A1.22,1.22,0,0,0,87,38.55C87.61,27.17,97.1,17,108.42,15.35a25.75,25.75,0,0,1,16.71,3.29c2.13,1.21,3.88,1.58,5.87,0a13.66,13.66,0,0,1,2-1,16.92,16.92,0,0,1,12.18-1.5,24.83,24.83,0,0,1,13.28,7.37,10.6,10.6,0,0,1,3.08,7.91,26.06,26.06,0,0,1-.68,6.76c-1.59,5.1-5.22,8.18-10,10.08-2.36.95-4.79,1.75-7.18,2.63A2.23,2.23,0,0,0,142.23,52a13.25,13.25,0,0,0-.39,10.12c.17.61.32,1.22.52,1.83.57,1.76.51,1.87-1.38,2-.52,0-1,0-1.56.08-2.18.2-4.38.16-6.56.39-6.09.65-10.39,4-13.79,9,.56-.21,1-.34,1.36-.5a59.46,59.46,0,0,1,28.4-3.71,58.61,58.61,0,0,1,25.61,9c11.54,7.35,20.3,17.24,25.41,30.14,2.13,5.39,4,10.83,4.1,16.73-.89,2.33-.76,4.77-.78,7.2a51.91,51.91,0,0,1-.26,5.72,68,68,0,0,1-3.8,16.21A63.87,63.87,0,0,1,191,171.35c-1.69,2.32-3.61,4.44-5.5,6.59a18.93,18.93,0,0,1-3.68,3.53c-15.16,12.75-32.46,17.43-52,13.7a51.6,51.6,0,0,1-11-3.47,2.2,2.2,0,0,1,.28-.33c3-2.56,6.39-4.63,9.64-6.88.68-.47,1.27-1,.69-1.83s-1.31-.57-2-.13c-1.16.74-2.31,1.52-3.46,2.29l-.29-.07c.9-2.58-.8-5.11.1-7.7a2.62,2.62,0,0,0-.23-1.64c-.69-2.14-2.37-3.22-4.35-3.94a1.29,1.29,0,0,0-1.6.7L112,180.53a1.34,1.34,0,0,0,.38,2.07,12.26,12.26,0,0,0,5,2.18,3.28,3.28,0,0,0,3.65-1.61l.35,0c.2,2.2,0,4.2-2.37,5.26a3.83,3.83,0,0,0-.76.58,1.56,1.56,0,0,0-.58,2.2c-19.06-8.71-30.69-23.32-36.12-43-3-10.9-1.86-31.92,3.36-39.19a7.91,7.91,0,0,0,.71,4.8c.38.69.7,1.6,1.76,1.12s.74-1.26.39-2a5.81,5.81,0,0,1-.64-2.16A2.08,2.08,0,0,1,90,108.49a7.4,7.4,0,0,1,4.45,4.24c.34.79.26,1.47-.7,1.83a1.1,1.1,0,0,0-.71,1.54c.33.82,1.17.73,1.85.85a1.5,1.5,0,0,0,1.63-.48.8.8,0,0,0,.2-.78c-.24-.49,0-.92,0-1.39a4.67,4.67,0,0,0-.36-2.92,10.38,10.38,0,0,0-4.82-4.82,4.61,4.61,0,0,0-5.62.83c-.15.15-.3.4-.63.16A72.6,72.6,0,0,1,102.16,86a77.22,77.22,0,0,1,9.08-6.59,7.88,7.88,0,0,0,3.89-3.31A25,25,0,0,1,137.59,63.3c.32,0,.85.14.81-.41s-.5-.27-.79-.28a34.51,34.51,0,0,0-6.42.47,22.64,22.64,0,0,0-12.92,6.18,64.81,64.81,0,0,0-7.11,9.15l-1.1-.49a13.86,13.86,0,0,0-1.75-2.34C107.2,74.42,106.56,72.63,104.5,72.75Zm69.44,77.1.08.08c-.84,2.33-2.08,4.47-3.07,6.73a2.5,2.5,0,0,1-1.19,1.25c-2.48,1.37-4.93,2.79-7.4,4.16-4.88,2.69-9.57,5.63-13.25,9.91-3,3.53-5.05,7.45-4.63,12.29a5.69,5.69,0,0,0,5.24,5.43c2.86.31,5.22-.84,7.39-2.51a33.89,33.89,0,0,0,7.53-8.61c3.73-5.68,6.52-11.87,9.52-17.94a3.62,3.62,0,0,1,1.39-1.56,64.86,64.86,0,0,0,7.32-5.18,50.75,50.75,0,0,0,12.92-15.09,10,10,0,0,0,1.13-2.88,1.38,1.38,0,0,0-.63-1.66,1.52,1.52,0,0,0-1.76.3,6.07,6.07,0,0,0-1.21,1.63,52.31,52.31,0,0,1-13.9,15.32c-.19.14-.41.25-.8.48.22-.53.32-.83.45-1.11a118.09,118.09,0,0,1,9.84-16.8c.64-.93.73-1.64-.1-2.39a1.18,1.18,0,0,1-.27-1.58,17.23,17.23,0,0,0,1.37-4.57,4.79,4.79,0,0,0-5-5.9A11.24,11.24,0,0,0,179,121.4c-9.63,5.79-15.31,14.56-18.64,25a7.73,7.73,0,0,0,.8,6.91,4.1,4.1,0,0,0,4.54,1.86,10.75,10.75,0,0,0,3.79-1.71A49.56,49.56,0,0,0,173.94,149.85ZM117.8,132.27l.15.16c-.14.41-.26.83-.43,1.23-2.87,6.57-5.89,13.08-7.63,20.08a22.43,22.43,0,0,0-1.1,5.73,4.08,4.08,0,0,0,3.23,3.8c1.44.15,2.28-.73,2.81-3s1-4.5,1.66-6.73a128.22,128.22,0,0,1,9.66-23.5,2.12,2.12,0,0,1,1.3-1,146,146,0,0,1,20.14-6.32,8.87,8.87,0,0,1,3.07-.5c-.12.28-.2.51-.3.72-2.8,6-5.58,11.91-8.13,18-2,4.81-4.12,9.59-5.28,14.71a5.33,5.33,0,0,0,1.05,4.73c1.72,2.1,3.76,1.87,4.75-.65a38.08,38.08,0,0,0,1.21-4.24c3.25-12.23,8.72-23.51,14.78-34.52a1.25,1.25,0,0,1,1-.69A24.92,24.92,0,0,1,165,120a3.93,3.93,0,0,0,3.43-1.59,2.74,2.74,0,0,0,.79-2.73c-.38-1.07-1.34-1.27-2.29-1.48a12.51,12.51,0,0,0-4.4,0,2.06,2.06,0,0,1,.48-1.25c1.45-2.47,2.89-5,4.41-7.39,3-4.81,6.09-9.56,9.08-14.37a11,11,0,0,0,1.83-4.88A3.05,3.05,0,0,0,176.44,83c-1.22-.46-2.23-.08-3.23,1.36-.7,1-1.27,2.12-1.93,3.16-5.73,8.88-11.3,17.86-16.36,27.15a1.8,1.8,0,0,1-1.3.9q-8.46,2.33-16.92,4.65c-2,.54-3.95,1.13-6.07,1.74a19.11,19.11,0,0,1,1.67-3.66c3.26-5.53,6.6-11,9.82-16.58a104.13,104.13,0,0,0,7.74-15.49,10.59,10.59,0,0,0,.9-4.3,2.13,2.13,0,0,0-2.07-2.32c-1.7-.26-3,.46-3.9,2.3-2.07,4.17-3.77,8.52-5.95,12.65-5.28,10-11.61,19.45-16.63,29.62a1.7,1.7,0,0,1-1,.88q-3.14,1.17-6.25,2.4a7.77,7.77,0,0,0-2.39,1.32,3.56,3.56,0,0,0-.62,4.29c.58.92,1.47,1,3.23.28Zm26.34-83.84a17.73,17.73,0,0,0,8.36-3.09c4.7-3.2,7.76-7.25,6.59-13.35-1.24-6.42-4.48-11.39-10.76-13.75-4.53-1.7-9.18-1.14-13.73.25a2.91,2.91,0,0,0-1.66,1.07c2.87-.45,5.61-1.12,8.37-1.27,7.58-.41,15.54,6.48,16.24,14.05.46,5-1.12,9.15-5.77,11.69-1.57.87-3.18,1.65-4.77,2.49A12.12,12.12,0,0,0,144.14,48.43Zm-4.73,14a5.15,5.15,0,0,0,0-.69A58.36,58.36,0,0,1,139,52c0-.65-.35-.66-.83-.68a41.55,41.55,0,0,0-24.41,6.24,28.41,28.41,0,0,0-9.44,9.35c-.25.4-.68.78-.12,1.35,2.07,2.1,4.1,4.26,6.14,6.39.19.21.39.45.69.17s.09-.42-.07-.61c-1.71-2.06-3.35-4.18-5.19-6.11-.46-.48-.44-.67-.23-1.08a12.23,12.23,0,0,1,3-3.85C116.67,56.08,126,52,137,52.48c.63,0,.83.22.81.84,0,1.43-.06,2.88,0,4.31A8,8,0,0,0,139.41,62.48ZM91.25,72.9c-2.17,0-4.12,0-6.07,0a11.74,11.74,0,0,1-7.12-2.41c-3.87-2.93-5.61-7.68-4.21-11.94A40.87,40.87,0,0,1,78,49.68,19.28,19.28,0,0,1,82.36,45c.26-.21.75-.25.38-.76s-.62-.06-.86.14a49.78,49.78,0,0,0-4.75,4.55A19.54,19.54,0,0,0,72.22,64c.46,6.45,7.36,11.46,14,10.53A11.05,11.05,0,0,0,91.25,72.9Zm6,81.39c.6-.55,1-1.15.3-1.87s-1.26-.32-1.92,0c-1,.53-2,1-3,1.48a18.52,18.52,0,0,0-3,1.65,1.07,1.07,0,0,0-.34,1.56,1,1,0,0,0,1.43.48c.61-.28,1.24-.53,1.85-.83a6.07,6.07,0,0,1,3.73-.45c.43.07.92.23,1,.73s-.46.58-.8.74a23.69,23.69,0,0,0-4.18,2.52c-.65.48-.88,1-.4,1.73a1.07,1.07,0,0,0,1.67.24c1.52-1.16,3.27-2,4.82-3.08,1.74-1.23,1.68-3.09-.06-4.32A11.65,11.65,0,0,0,97.28,154.29ZM98.47,166c1.59.76,3,1.46,4.38,2.1a1.91,1.91,0,0,0,2.32-.32,2.17,2.17,0,0,0,.4-2.35,4.48,4.48,0,0,0-4.92-3.29c-2.24.22-4.29,2.19-4.3,4.12,0,2.15,2.32,5,4.28,5.19a1.17,1.17,0,0,0,1.36-.74c.19-.55-.24-.87-.67-1.12-.28-.15-.59-.25-.86-.41A3.75,3.75,0,0,1,98.47,166ZM118.09,19.44c-6.72-2.66-13.15-2.53-19,2.28-3.48,2.84-6.64,5.89-7.67,10.65a1.61,1.61,0,0,0,1.19-.85c.93-1.25,1.86-2.49,2.73-3.79a15.92,15.92,0,0,1,7.75-6.29c3.82-1.44,7.63-2.81,11.83-2.23A13.2,13.2,0,0,0,118.09,19.44ZM88,118.66c-.79.07-1.59.08-2.38.2a2.65,2.65,0,0,0-2.49,2.71,5.73,5.73,0,0,0,0,1.55,1.51,1.51,0,0,1-.21,1.31,1.08,1.08,0,0,0,.93,1.77c2.19.11,4.39.12,6.57.4.85.1,1.59-.06,1.67-1s-.74-1.24-1.6-1.33A25.42,25.42,0,0,0,86.4,124c-1.29.08-1-.91-1-1.55s0-1.36,1-1.37a20.82,20.82,0,0,1,4.53.26,1.13,1.13,0,0,0,1.51-1c.15-.86-.43-1.24-1.15-1.38A13.92,13.92,0,0,0,88,118.66Zm-1.11,25.73a2.1,2.1,0,0,0,2-1.1,12.15,12.15,0,0,0,.91-2.32c.22-.59.12-1.68.86-1.58s.53,1.2.76,1.86c.1.32-.17.49-.29.73-.25.5-.3,1,.3,1.33a1.5,1.5,0,0,0,2.17-1.5,14.9,14.9,0,0,0-.72-3,2.37,2.37,0,0,0-2.33-1.89,2.5,2.5,0,0,0-2.36,2c-.26.75-.41,1.53-.65,2.29-.1.33-.19.75-.65.75s-.53-.42-.66-.75a5.42,5.42,0,0,1,0-2.47c0-.58-.09-1.19-.77-1.3s-1,.37-1.25.91a5.76,5.76,0,0,0,1.13,5.36A2.11,2.11,0,0,0,86.93,144.39Zm1.95-11.54c.9,0,1.46,0,2,0a1.1,1.1,0,0,0,1.28-1.11,1.13,1.13,0,0,0-1.31-1.22c-2.11.06-4.22.15-6.32.25-.77,0-1.34.43-1.28,1.26s.62,1.12,1.43,1.06C86.2,133,87.71,132.92,88.88,132.85ZM88,151.12c2.19-.75,4.49-1.5,6.75-2.35a.93.93,0,0,0,.44-1.32,1,1,0,0,0-1.21-.73A40,40,0,0,0,87.26,149a1,1,0,0,0-.45,1.35A1.07,1.07,0,0,0,88,151.12Zm9.57-5.57a1.19,1.19,0,0,0-1.2,1.22,1.25,1.25,0,0,0,1.29,1.39,1.14,1.14,0,0,0,1.2-1.2A1.31,1.31,0,0,0,97.59,145.55Zm-1.72-13.73c-.05-.79-.43-1.33-1.23-1.33a1.3,1.3,0,0,0,0,2.58C95.44,133.11,95.81,132.6,95.87,131.82Z" style="fill:#f8b62f"/><path d="M121,183.17a3.28,3.28,0,0,1-3.65,1.61,12.26,12.26,0,0,1-5-2.18,1.34,1.34,0,0,1-.38-2.07l5.59-8.36a1.29,1.29,0,0,1,1.6-.7c2,.72,3.66,1.8,4.35,3.94a2.62,2.62,0,0,1,.23,1.64c-.9,2.59.8,5.12-.1,7.7l.29.07c1.15-.77,2.3-1.55,3.46-2.29.68-.44,1.42-.72,2,.13s0,1.36-.69,1.83c-3.25,2.25-6.62,4.32-9.64,6.88a2.2,2.2,0,0,0-.28.33,51.6,51.6,0,0,0,11,3.47c19.5,3.73,36.8-.95,52-13.7a18.93,18.93,0,0,0,3.68-3.53c.41,0,.62-.32.88-.56,7.14-6.52,11.59-14.74,14.66-23.75a79.36,79.36,0,0,0,4-19c.22-2.56.34-5.19-1.07-7.55-.08-5.9-2-11.34-4.1-16.73-5.11-12.9-13.87-22.79-25.41-30.14a58.61,58.61,0,0,0-25.61-9A59.46,59.46,0,0,0,120.43,75c-.39.16-.8.29-1.36.5,3.4-5.07,7.7-8.4,13.79-9,2.18-.23,4.38-.19,6.56-.39.52,0,1,0,1.56-.08,1.89-.16,2-.27,1.38-2-.2-.61-.35-1.22-.52-1.83,10.78-.08,21,2.5,30.8,6.78,14.32,6.24,24.48,16.85,32,30.26a68.36,68.36,0,0,1,8.46,23.08,26.4,26.4,0,0,1,.39,4.17c0,3.27-.15,6.56,0,9.82.31,5.72-.92,11.14-2.41,16.59-3.56,13-10.5,24-20,33.35-9.34,9.22-20.78,14.61-33.48,17.42-37.67,8.36-71-14.12-82.73-44.38-3.24-8.36-4.35-17-4.53-26-.29-14,4.35-26.5,11.54-38.1A79,79,0,0,1,99.37,76a14.47,14.47,0,0,1,4.19-2.5c.41-.15.62-.48.94-.71,2.06-.12,2.7,1.67,3.81,2.83a20,20,0,0,0-5.53,3A80.44,80.44,0,0,0,83,101.66a60.5,60.5,0,0,0-7.53,22.18A92.2,92.2,0,0,0,75,136.16a53.89,53.89,0,0,0,1.52,12.78c3.87,16.45,13.1,29.32,26.42,39.43,5.7,4.31,12.2,7.06,18.87,9.45,3.93,1.4,7.88,2.81,12.11,2.88,5.39.08,10.78,0,16.17,0a15.9,15.9,0,0,0,3.44-.38,71.62,71.62,0,0,0,26.15-11,70.32,70.32,0,0,0,24.46-29.69,57.23,57.23,0,0,0,4.74-17.14c.42-3.9.13-7.83.28-11.73.23-5.58-1-10.87-2.59-16.16-4.25-13.91-12.52-25-23.47-34.29-4.14-3.51-9-5.89-13.88-8.07a77.1,77.1,0,0,0-20-5.51,12.54,12.54,0,0,0-4.53,0c-.41.09-1.06,0-1.12.63-.08.82,1.23,2.1,2.11,2.12A51.24,51.24,0,0,1,161,72.09a67,67,0,0,1,32.33,23.14c7,9,11.48,19,12.63,30.42a61.61,61.61,0,0,1-1.34,21.26c-4.85,19.42-15.84,34.24-33.35,44a49.83,49.83,0,0,1-20.58,6.2c-3.91.31-7.82.13-11.73.17a51,51,0,0,1-14.36-2c-24.29-6.83-45.29-30.67-46.12-55.46-.24-7.13-.42-14.26,1.27-21.31,3.46-14.5,11.56-25.93,23-35.18,2.35-1.9,5-3.33,7.29-5.4l1.1.49c0,.33,0,.66.08,1A77.22,77.22,0,0,0,102.16,86a72.6,72.6,0,0,0-16.81,21.56c.33.24.48,0,.63-.16a4.61,4.61,0,0,1,5.62-.83,10.38,10.38,0,0,1,4.82,4.82,4.67,4.67,0,0,1,.36,2.92c-.07.47-.29.9,0,1.39a.8.8,0,0,1-.2.78,1.5,1.5,0,0,1-1.63.48c-.68-.12-1.52,0-1.85-.85a1.1,1.1,0,0,1,.71-1.54c1-.36,1-1,.7-1.83A7.4,7.4,0,0,0,90,108.49a2.08,2.08,0,0,0-2.88,2.25,5.81,5.81,0,0,0,.64,2.16c.35.78.61,1.58-.39,2s-1.38-.43-1.76-1.12a7.91,7.91,0,0,1-.71-4.8c-5.22,7.27-6.37,28.29-3.36,39.19,5.43,19.7,17.06,34.31,36.12,43a1.56,1.56,0,0,1,.58-2.2,3.83,3.83,0,0,1,.76-.58c2.35-1.06,2.57-3.06,2.37-5.26,0-.9.06-1.8.08-2.7,0-.26-.12-.47-.43-.42s-.28.32-.2.54A5.68,5.68,0,0,1,121,183.17Zm-1.09-5.23a1.41,1.41,0,0,0,1.53-1.31c0-.91-1.28-2.53-2-2.57a8.61,8.61,0,0,0-2,2.56C117.43,177.1,119,177.94,119.94,177.94Zm-1,3.89c0-.92-1.92-3-2.74-3.06a.57.57,0,0,0-.36.24c-.39.55-.74,1.12-1.13,1.67-.25.34-.17.57.18.75a12.85,12.85,0,0,0,3.21,1.21C118.67,182.78,118.93,182.44,118.89,181.83Z" style="fill:#463630"/><path d="M75.35,190.22c4.8,2.69,9.6,5.37,14.37,8.12C101.3,205,113.86,208.71,127,210.5c25.48,3.46,49.38-1.1,71.45-14.54,1.84-1.12,3.68-2.23,5.5-3.38s3.55-2.29,5.42-3.5a2.63,2.63,0,0,1-.81,1.83,41.62,41.62,0,0,1-6.93,6.92,98.4,98.4,0,0,1-41.45,20.94,39.13,39.13,0,0,1-9,1.19c-6.19.06-12.38.14-18.57,0-5.67-.14-11.08-1.79-16.43-3.51a99.27,99.27,0,0,1-14.32-5.69c-.64-.31-.95-.24-1.35.35-1.14,1.69-2.34,3.33-3.55,5a27.35,27.35,0,0,0-5,13.66,44.55,44.55,0,0,1-1.87,9.49c-2.69,8.13-11.06,9-16.23,5.16-4.07-3-5.93-6.94-6.41-12.18-.93-10,9.76-25.32,20.39-28.44.33-.1.69-.13.74-.63.07-.74-.51-.17-.7-.39s-.23-.22-.34-.33l-12.26-11.8a1,1,0,0,1-.12-.2Zm6.53,33.17a2.55,2.55,0,0,0,1-1.44c.58-1.35,1.15-2.71,1.67-4.09a16.14,16.14,0,0,1,6-7.75c1.11-.78,2.13-1.68,3.18-2.54.22-.19.51-.38.41-.79a2.06,2.06,0,0,0-2.29-1.44,5.91,5.91,0,0,0-2.93,1.79A27.78,27.78,0,0,0,81.88,223.39Z" style="fill:#db7f38"/><path d="M55.85,204.73c-3.18,0-4.65-1.15-5.07-3.73-.49-3,.69-5.2,3.34-6.07a8.06,8.06,0,0,1,4.59-.16,43.25,43.25,0,0,1,5.83,2.13c.86.36.71.7.17,1.25-1.69,1.75-3.41,3.46-5.19,5.12C58.38,204.33,57.2,205.1,55.85,204.73Zm-1.21-8a13.8,13.8,0,0,0-1.87,1c-.7.51-.25,1.31-.34,2,0,.28.18.37.45.44,1.33.31,1.76,0,1.76-1.38Z" style="fill:#db7f38"/><path d="M75.2,190.42l-.38-.18c.17-.16.35-.09.53,0Z" style="fill:#db7f38"/><path d="M117.8,132.27l-2.67,1c-1.76.71-2.65.64-3.23-.28a3.56,3.56,0,0,1,.62-4.29,7.77,7.77,0,0,1,2.39-1.32q3.12-1.23,6.25-2.4a1.7,1.7,0,0,0,1-.88c5-10.17,11.35-19.6,16.63-29.62,2.18-4.13,3.88-8.48,5.95-12.65.91-1.84,2.2-2.56,3.9-2.3a2.13,2.13,0,0,1,2.07,2.32,10.59,10.59,0,0,1-.9,4.3,104.13,104.13,0,0,1-7.74,15.49c-3.22,5.56-6.56,11-9.82,16.58a19.11,19.11,0,0,0-1.67,3.66c2.12-.61,4.09-1.2,6.07-1.74q8.45-2.34,16.92-4.65a1.8,1.8,0,0,0,1.3-.9c5.06-9.29,10.63-18.27,16.36-27.15.66-1,1.23-2.15,1.93-3.16,1-1.44,2-1.82,3.23-1.36a3.05,3.05,0,0,1,1.89,3.27,11,11,0,0,1-1.83,4.88c-3,4.81-6.08,9.56-9.08,14.37-1.52,2.43-3,4.92-4.41,7.39a2.06,2.06,0,0,0-.48,1.25,12.51,12.51,0,0,1,4.4,0c.95.21,1.91.41,2.29,1.48a2.74,2.74,0,0,1-.79,2.73A3.93,3.93,0,0,1,165,120a24.92,24.92,0,0,0-5.24.4,1.25,1.25,0,0,0-1,.69c-6.06,11-11.53,22.29-14.78,34.52a38.08,38.08,0,0,1-1.21,4.24c-1,2.52-3,2.75-4.75.65a5.33,5.33,0,0,1-1.05-4.73c1.16-5.12,3.26-9.9,5.28-14.71,2.55-6.06,5.33-12,8.13-18,.1-.21.18-.44.3-.72a8.87,8.87,0,0,0-3.07.5,146,146,0,0,0-20.14,6.32,2.12,2.12,0,0,0-1.3,1,128.22,128.22,0,0,0-9.66,23.5c-.63,2.23-1.12,4.49-1.66,6.73s-1.37,3.1-2.81,3a4.08,4.08,0,0,1-3.23-3.8,22.43,22.43,0,0,1,1.1-5.73c1.74-7,4.76-13.51,7.63-20.08.17-.4.29-.82.43-1.23l.09-.23Z" style="fill:#463630"/><path d="M173.94,149.85a49.56,49.56,0,0,1-4.42,3.63,10.75,10.75,0,0,1-3.79,1.71,4.1,4.1,0,0,1-4.54-1.86,7.73,7.73,0,0,1-.8-6.91c3.33-10.46,9-19.23,18.64-25a11.24,11.24,0,0,1,5.88-1.75,4.79,4.79,0,0,1,5,5.9,17.23,17.23,0,0,1-1.37,4.57,1.18,1.18,0,0,0,.27,1.58c.83.75.74,1.46.1,2.39a118.09,118.09,0,0,0-9.84,16.8c-.13.28-.23.58-.45,1.11.39-.23.61-.34.8-.48a52.31,52.31,0,0,0,13.9-15.32,6.07,6.07,0,0,1,1.21-1.63,1.52,1.52,0,0,1,1.76-.3,1.38,1.38,0,0,1,.63,1.66,10,10,0,0,1-1.13,2.88,50.75,50.75,0,0,1-12.92,15.09,64.86,64.86,0,0,1-7.32,5.18,3.62,3.62,0,0,0-1.39,1.56c-3,6.07-5.79,12.26-9.52,17.94a33.89,33.89,0,0,1-7.53,8.61c-2.17,1.67-4.53,2.82-7.39,2.51a5.69,5.69,0,0,1-5.24-5.43c-.42-4.84,1.6-8.76,4.63-12.29,3.68-4.28,8.37-7.22,13.25-9.91,2.47-1.37,4.92-2.79,7.4-4.16a2.5,2.5,0,0,0,1.19-1.25c1-2.26,2.23-4.4,3.07-6.73,0-.08.07-.15.1-.23C174,149.65,174,149.76,173.94,149.85ZM166,147.18c-.12,2.65,1.06,3.44,3,2.44a8.81,8.81,0,0,0,1.85-1.3,39.72,39.72,0,0,0,6.89-8.55c.22-.35.43-.67,0-1.05-.77-.73-.37-1.34.21-1.94.86-.89,1.75-1.76,2.54-2.7a17.74,17.74,0,0,0,3.62-5.87,2,2,0,0,0-.21-2.05,1.86,1.86,0,0,0-2-.23,10,10,0,0,0-3.45,2.1,41.31,41.31,0,0,0-10.63,13.86A16.07,16.07,0,0,0,166,147.18Zm1,17-.73.27a36,36,0,0,0-13,10.14,14.88,14.88,0,0,0-3.35,6.66,2.19,2.19,0,0,0,2.94,2.65,7.05,7.05,0,0,0,3-1.88,35.55,35.55,0,0,0,5.46-7.54C163.3,171.23,165.18,167.87,167,164.22Z" style="fill:#463630"/><path d="M144.14,48.43A12.12,12.12,0,0,1,147,46.52c1.59-.84,3.2-1.62,4.77-2.49,4.65-2.54,6.23-6.7,5.77-11.69-.7-7.57-8.66-14.46-16.24-14.05-2.76.15-5.5.82-8.37,1.27a2.91,2.91,0,0,1,1.66-1.07c4.55-1.39,9.2-1.95,13.73-.25,6.28,2.36,9.52,7.33,10.76,13.75,1.17,6.1-1.89,10.15-6.59,13.35A17.73,17.73,0,0,1,144.14,48.43Z" style="fill:#674a33"/><path d="M139.41,62.48a8,8,0,0,1-1.59-4.85c-.09-1.43,0-2.88,0-4.31,0-.62-.18-.82-.81-.84-11-.46-20.31,3.6-28.49,10.68a12.23,12.23,0,0,0-3,3.85c-.21.41-.23.6.23,1.08,1.84,1.93,3.48,4,5.19,6.11.16.19.33.38.07.61s-.5,0-.69-.17c-2-2.13-4.07-4.29-6.14-6.39-.56-.57-.13-1,.12-1.35a28.41,28.41,0,0,1,9.44-9.35,41.55,41.55,0,0,1,24.41-6.24c.48,0,.88,0,.83.68a58.36,58.36,0,0,0,.48,9.8A5.15,5.15,0,0,1,139.41,62.48Z" style="fill:#674a33"/><path d="M91.25,72.9a11.05,11.05,0,0,1-5,1.58c-6.69.93-13.59-4.08-14-10.53A19.54,19.54,0,0,1,77.13,48.9a49.78,49.78,0,0,1,4.75-4.55c.24-.2.48-.66.86-.14s-.12.55-.38.76A19.28,19.28,0,0,0,78,49.68a40.87,40.87,0,0,0-4.12,8.87c-1.4,4.26.34,9,4.21,11.94a11.74,11.74,0,0,0,7.12,2.41C87.13,72.93,89.08,72.9,91.25,72.9Z" style="fill:#674a33"/><path d="M204,127.11c1.41,2.36,1.29,5,1.07,7.55a79.36,79.36,0,0,1-4,19c-3.07,9-7.52,17.23-14.66,23.75-.26.24-.47.57-.88.56,1.89-2.15,3.81-4.27,5.5-6.59a63.87,63.87,0,0,0,8.13-15.11,68,68,0,0,0,3.8-16.21,51.91,51.91,0,0,0,.26-5.72C203.19,131.88,203.06,129.44,204,127.11Z" style="fill:#db7f38"/><path d="M97.28,154.29a11.65,11.65,0,0,1,1.07.62c1.74,1.23,1.8,3.09.06,4.32-1.55,1.1-3.3,1.92-4.82,3.08a1.07,1.07,0,0,1-1.67-.24c-.48-.7-.25-1.25.4-1.73a23.69,23.69,0,0,1,4.18-2.52c.34-.16.87-.23.8-.74s-.56-.66-1-.73a6.07,6.07,0,0,0-3.73.45c-.61.3-1.24.55-1.85.83a1,1,0,0,1-1.43-.48,1.07,1.07,0,0,1,.34-1.56,18.52,18.52,0,0,1,3-1.65c1-.46,2-.95,3-1.48.66-.36,1.27-.75,1.92,0S97.88,153.74,97.28,154.29Z" style="fill:#463630"/><path d="M98.47,166a3.75,3.75,0,0,0,2,3.18c.27.16.58.26.86.41.43.25.86.57.67,1.12a1.17,1.17,0,0,1-1.36.74c-2-.22-4.28-3-4.28-5.19,0-1.93,2.06-3.9,4.3-4.12a4.48,4.48,0,0,1,4.92,3.29,2.17,2.17,0,0,1-.4,2.35,1.91,1.91,0,0,1-2.32.32C101.44,167.41,100.06,166.71,98.47,166Zm5.08.06c-.81-1.78-1.44-2.07-3.32-1.51A13.69,13.69,0,0,0,103.55,166Z" style="fill:#463630"/><path d="M118.09,19.44a13.2,13.2,0,0,1-3.19-.23c-4.2-.58-8,.79-11.83,2.23a15.92,15.92,0,0,0-7.75,6.29c-.87,1.3-1.8,2.54-2.73,3.79a1.61,1.61,0,0,1-1.19.85c1-4.76,4.19-7.81,7.67-10.65C104.94,16.91,111.37,16.78,118.09,19.44Z" style="fill:#674a33"/><path d="M88,118.66a13.92,13.92,0,0,1,3.22.33c.72.14,1.3.52,1.15,1.38a1.13,1.13,0,0,1-1.51,1,20.82,20.82,0,0,0-4.53-.26c-1,0-1.09.69-1,1.37s-.25,1.63,1,1.55a25.42,25.42,0,0,1,4.18.23c.86.09,1.68.25,1.6,1.33s-.82,1.15-1.67,1c-2.18-.28-4.38-.29-6.57-.4a1.08,1.08,0,0,1-.93-1.77,1.51,1.51,0,0,0,.21-1.31,5.73,5.73,0,0,1,0-1.55,2.65,2.65,0,0,1,2.49-2.71C86.45,118.74,87.25,118.73,88,118.66Z" style="fill:#463630"/><path d="M86.93,144.39a2.11,2.11,0,0,1-1.59-.66,5.76,5.76,0,0,1-1.13-5.36c.23-.54.6-1,1.25-.91s.79.72.77,1.3a5.42,5.42,0,0,0,0,2.47c.13.33.21.74.66.75s.55-.42.65-.75c.24-.76.39-1.54.65-2.29a2.5,2.5,0,0,1,2.36-2,2.37,2.37,0,0,1,2.33,1.89,14.9,14.9,0,0,1,.72,3,1.5,1.5,0,0,1-2.17,1.5c-.6-.31-.55-.83-.3-1.33.12-.24.39-.41.29-.73-.23-.66,0-1.77-.76-1.86s-.64,1-.86,1.58a12.15,12.15,0,0,1-.91,2.32A2.1,2.1,0,0,1,86.93,144.39Z" style="fill:#463630"/><path d="M88.88,132.85c-1.17.07-2.68.14-4.18.25-.81.06-1.38-.23-1.43-1.06s.51-1.22,1.28-1.26c2.1-.1,4.21-.19,6.32-.25a1.13,1.13,0,0,1,1.31,1.22,1.1,1.1,0,0,1-1.28,1.11C90.34,132.84,89.78,132.85,88.88,132.85Z" style="fill:#463630"/><path d="M88,151.12a1.07,1.07,0,0,1-1.21-.73,1,1,0,0,1,.45-1.35A40,40,0,0,1,94,146.72a1,1,0,0,1,1.21.73.93.93,0,0,1-.44,1.32C92.51,149.62,90.21,150.37,88,151.12Z" style="fill:#463630"/><path d="M97.59,145.55A1.31,1.31,0,0,1,98.88,147a1.14,1.14,0,0,1-1.2,1.2,1.25,1.25,0,0,1-1.29-1.39A1.19,1.19,0,0,1,97.59,145.55Z" style="fill:#463630"/><path d="M95.87,131.82c-.06.78-.43,1.29-1.26,1.25a1.3,1.3,0,0,1,0-2.58C95.44,130.49,95.82,131,95.87,131.82Z" style="fill:#463630"/><path d="M121,183.17a5.68,5.68,0,0,0-.2-2.56c-.08-.22-.16-.48.2-.54s.43.16.43.42c0,.9,0,1.8-.08,2.7Z" style="fill:#db7f38"/><path d="M119.94,177.94c-.92,0-2.51-.84-2.5-1.32a8.61,8.61,0,0,1,2-2.56c.76,0,2,1.66,2,2.57A1.41,1.41,0,0,1,119.94,177.94Z" style="fill:#f8b62f"/><path d="M118.89,181.83c0,.61-.22.95-.84.81a12.85,12.85,0,0,1-3.21-1.21c-.35-.18-.43-.41-.18-.75.39-.55.74-1.12,1.13-1.67a.57.57,0,0,1,.36-.24C117,178.79,118.86,180.91,118.89,181.83Z" style="fill:#f8b62f"/><path d="M117.8,132.27l.24-.07-.09.23Z" style="fill:#f8b62f"/><path d="M166,147.18a16.07,16.07,0,0,1,1.81-5.29A41.31,41.31,0,0,1,178.44,128a10,10,0,0,1,3.45-2.1,1.86,1.86,0,0,1,2,.23,2,2,0,0,1,.21,2.05,17.74,17.74,0,0,1-3.62,5.87c-.79.94-1.68,1.81-2.54,2.7-.58.6-1,1.21-.21,1.94.4.38.19.7,0,1.05a39.72,39.72,0,0,1-6.89,8.55,8.81,8.81,0,0,1-1.85,1.3C167.06,150.62,165.88,149.83,166,147.18Z" style="fill:#f8b62f"/><path d="M167,164.22c-1.8,3.65-3.68,7-5.68,10.3a35.55,35.55,0,0,1-5.46,7.54,7.05,7.05,0,0,1-3,1.88,2.19,2.19,0,0,1-2.94-2.65,14.88,14.88,0,0,1,3.35-6.66,36,36,0,0,1,13-10.14Z" style="fill:#f8b62f"/><path d="M173.94,149.85c0-.09,0-.2.18-.15,0,.08-.07.15-.1.23Z" style="fill:#f8b62f"/><path d="M103.55,166a13.69,13.69,0,0,1-3.32-1.51C102.11,163.94,102.74,164.23,103.55,166Z" style="fill:#f8b62f"/></svg>